<?xml version="1.0" encoding="UTF-8"?>
<svg id="_Слой_1" data-name="Слой_1" xmlns="http://www.w3.org/2000/svg" version="1.1" viewBox="0 0 677.25 677.25">
  <!-- Generator: Adobe Illustrator 29.4.0, SVG Export Plug-In . SVG Version: 2.1.0 Build 152)  -->
  <defs>
    <style>
      .st0 {
        fill: #fdfdfd;
      }
    </style>
  </defs>
  <rect class="st0" width="677.25" height="677.25"/>
  <path d="M483.75,414c.89-18.06-1.18-37.22-.03-55.16.73-11.32,1.84-21.28,2.25-33,1.96-55.73,2.41-116.08,0-171.75-.31-7.12,3.67-.16,3.05,3.75-.69,56.46,1.17,113.16-.81,169.5-.41,11.72-1.52,21.68-2.25,33-1.12,17.35.61,36.27.37,53.69.82,1.21,5.3.85,4.9,3.71l-10.09-1.53-237.82.07c-2.3.59-3.1-2.29-1.46-2.29h241.88Z"/>
</svg>