<?xml version="1.0" encoding="UTF-8"?>
<svg id="_Слой_1" data-name="Слой_1" xmlns="http://www.w3.org/2000/svg" version="1.1" viewBox="0 0 677.25 677.25">
  <!-- Generator: Adobe Illustrator 29.4.0, SVG Export Plug-In . SVG Version: 2.1.0 Build 152)  -->
  <defs>
    <style>
      .st0 {
        fill: #050505;
      }

      .st1 {
        fill: #fefefe;
      }

      .st2 {
        fill: #fdfdfd;
      }
    </style>
  </defs>
  <rect class="st2" width="677.25" height="677.25"/>
  <g>
    <path d="M286.5,237.75c-6.22,7.19-11.14,17-15.14,25.74-.58,1.27-1.85,6.3-2.12,6.51-.74.58-2.23-.62-2.25-1.84,0-.57,2.38-6.49,2.87-7.67,3.96-9.53,10.38-19.41,16.63-27.62-7.29-2.93-16.22-6.42-15.8-15.76.3-6.62,5.95-15.33,11.77-18.27,2.34-1.18,5.03-.17,5.76-1.75l1.97-45.27,193.22.47c1.47.74,3.49-1.53,3.7-1.53,1.76,0,1.83,6.5,1.89,7.81,2.61,53.51-2.03,109.1.01,162.83.2,13.05-2.25,26.23-3.07,38.93-1.12,17.35.61,36.27.37,53.69.82,1.21,5.3.85,4.9,3.71l-10.09-1.53-237.82.07c-2.3.59-3.1-2.29-1.46-2.29h241.88c.89-18.06-1.18-37.22-.03-55.16.73-11.32,1.84-21.28,2.25-33,1.95-55.58.14-111.54.81-167.25l-.89-3.99-194.15-.86-1.39,45.24c.25,1.03,9.75,5.8,11.91,8.38,7.66,9.17-.17,27.42-12.76,26.26,4.56,5.7,11.29,9.1,15.18,15.57.47,2.56,8.77,18.53,8.06,19.31-.74.81-2.89-1.67-3.31-2.31-3.29-5.11-4.26-12.25-7.63-17.12-3.17-4.58-8.66-8.68-13.06-12.06v45.38c0,.51,4.76,6.45,5.78,8.47,3.5,6.86,5.44,15.24,9.08,21.67,2.28,4.03,7.8,7.65,6.51,12.24l-9.02-11.98c-3.83-9.42-7.4-18.89-12.35-27.78l-13.64,27.98-2.11,8.77c-4.88-.58.07-10.22,1.36-13.26,2.1-4.95,12.14-22.34,12.14-26.11v-44.62Z"/>
    <g>
      <path class="st1" d="M298.99,226.99c-5.46,6.47-12.47,4.1-18.99.38-8.39-4.79-8.59-10.99-3.81-19.06.83-1.41,6.94-6.92,8.26-7.5,2.61-1.15,8.26,2.29,10.71,3.91,4.58,3.01,8.44,6.33,7.88,12.41-.19,2.05-2.7,8.27-4.04,9.86Z"/>
      <path class="st0" d="M287.25,207.74c-.09.13-2.03.26-2.24,1.17s2.96,5.69,2.24,6.34c-1.55,1.39-3.23-1.73-3.37-3-.93-.01.47,3.95-1.49,3-2.51-1.22-.14-4.71-.5-6.22-.29-1.2-3.96-3.09-.44-3.32.99-.06,7.47-.28,5.79,2.03Z"/>
    </g>
  </g>
</svg>