<?xml version="1.0" encoding="UTF-8"?>
<svg id="_Слой_1" data-name="Слой_1" xmlns="http://www.w3.org/2000/svg" version="1.1" viewBox="0 0 677.25 677.25">
  <!-- Generator: Adobe Illustrator 29.4.0, SVG Export Plug-In . SVG Version: 2.1.0 Build 152)  -->
  <defs>
    <style>
      .st0 {
        fill: #fdfdfd;
      }
    </style>
  </defs>
  <rect class="st0" width="677.25" height="677.25"/>
  <path d="M483.75,414c.89-18.06-1.18-37.22-.03-55.16.73-11.32,1.84-21.28,2.25-33,1.95-55.58.14-111.54.81-167.25l-.89-3.99-195.63-1.98c.9-1.38,1.99-1.04,3.33-1.16,16.91-1.47,34.87.67,51.75.82,46.02.4,92.06-.41,138.09.02,1.47.74,3.49-1.53,3.7-1.53,1.76,0,1.83,6.5,1.89,7.81,2.61,53.51-2.03,109.1.01,162.83.2,13.05-2.25,26.23-3.07,38.93-1.12,17.35.61,36.27.37,53.69.82,1.21,5.3.85,4.9,3.71l-10.09-1.53-237.82.07c-2.3.59-3.1-2.29-1.46-2.29h241.88Z"/>
</svg>