<?xml version="1.0" encoding="UTF-8"?>
<svg id="_Слой_1" data-name="Слой_1" xmlns="http://www.w3.org/2000/svg" version="1.1" viewBox="0 0 677.25 677.25">
  <!-- Generator: Adobe Illustrator 29.4.0, SVG Export Plug-In . SVG Version: 2.1.0 Build 152)  -->
  <defs>
    <style>
      .st0 {
        fill: #fefefe;
      }

      .st1 {
        fill: #fdfdfd;
      }
    </style>
  </defs>
  <rect class="st1" width="677.25" height="677.25"/>
  <g>
    <path d="M483.75,414c.89-18.06-1.18-37.22-.03-55.16.73-11.32,1.84-21.28,2.25-33,1.95-55.58.14-111.54.81-167.25l-.89-3.99-194.15-.86-1.39,45.24c5.07,4.09,13.61,6.71,14.84,14.43.64,4.02-1.31,11.94-3.96,15.08-5.36,6.32-11.33,5.62-18.48,2.87-8.29-3.18-13.49-8.03-11.48-17.46,1.16-5.45,6.25-12.56,11.19-15.06,2.34-1.18,5.03-.17,5.76-1.75l1.27-43.72,1.23-1.77,192.7.7c1.47.74,3.49-1.53,3.7-1.53,1.76,0,1.83,6.5,1.89,7.81,2.61,53.51-2.03,109.1.01,162.83.2,13.05-2.25,26.23-3.07,38.93-1.12,17.35.61,36.27.37,53.69.82,1.21,5.3.85,4.9,3.71l-10.09-1.53-237.82.07c-2.3.59-3.1-2.29-1.46-2.29h241.88Z"/>
    <path class="st0" d="M298.99,226.99c-5.46,6.47-12.47,4.1-18.99.38-8.39-4.79-8.59-10.99-3.81-19.06.83-1.41,6.94-6.92,8.26-7.5,2.61-1.15,8.26,2.29,10.71,3.91,4.58,3.01,8.44,6.33,7.88,12.41-.19,2.05-2.7,8.27-4.04,9.86Z"/>
  </g>
</svg>