<?xml version="1.0" encoding="UTF-8"?>
<svg id="_Слой_1" data-name="Слой_1" xmlns="http://www.w3.org/2000/svg" version="1.1" viewBox="0 0 677.25 677.25">
  <!-- Generator: Adobe Illustrator 29.4.0, SVG Export Plug-In . SVG Version: 2.1.0 Build 152)  -->
  <defs>
    <style>
      .st0 {
        fill: #010101;
      }

      .st1 {
        fill: #fefefe;
      }

      .st2 {
        fill: #fdfdfd;
      }
    </style>
  </defs>
  <rect class="st2" width="677.25" height="677.25"/>
  <path class="st0" d="M288,233.25c.86,1.25.73,2.66.78,4.09.35,10.07-2.02,37.42.13,44.88.32,1.1,4.53,6.45,5.62,8.63,3.38,6.75,5.35,14.84,8.81,21.19,2.34,4.29,7.96,7.98,6.77,12.73l-9.02-11.98c-3.83-9.42-7.4-18.89-12.35-27.78l-13.64,27.98-2.11,8.77c-1.01.21-1.84-.28-2.15-1.25-1.43-4.52,9.75-23.53,12.03-28.99,6.46-15.5,3.08-37.03,3.59-54.17.04-1.43-.07-2.84.78-4.09.24.05.5-.03.75,0Z"/>
  <g>
    <path d="M287.25,233.25c-2.13-.4-9.36-4.12-11.27-5.61-6.35-4.95-6.14-9.32-3.74-16.53,1.42-4.25,6.27-10.27,10.23-12.27,2.34-1.18,5.03-.17,5.76-1.75l1.27-43.72,1.23-1.77,196.77-.5c1.52,1.01,1.43,5.63,1.52,7.48,2.45,53.61-1.91,109.03.01,162.83.2,13.05-2.25,26.23-3.07,38.93-1.12,17.35.61,36.27.37,53.69.82,1.21,5.3.85,4.9,3.71l-10.09-1.53-237.82.07c-2.3.59-3.1-2.29-1.46-2.29h241.88c.89-18.06-1.18-37.22-.03-55.16.73-11.32,1.84-21.28,2.25-33,1.95-55.58.14-111.54.81-167.25l-.89-3.99-194.15-.86-1.39,45.24c.44,1.83,3.58,2.17,5.1,3.18,6.13,4.08,10.6,7.5,9.79,15.71-.92,9.47-7.29,16.66-17.25,15.37-.19.66-.44.64-.75,0Z"/>
    <path class="st1" d="M298.99,226.99c-5.46,6.47-12.47,4.1-18.99.38-8.39-4.79-8.59-10.99-3.81-19.06.83-1.41,6.94-6.92,8.26-7.5,2.61-1.15,8.26,2.29,10.71,3.91,4.58,3.01,8.44,6.33,7.88,12.41-.19,2.05-2.7,8.27-4.04,9.86Z"/>
  </g>
</svg>