<?xml version="1.0" encoding="UTF-8"?>
<svg id="_Слой_1" data-name="Слой_1" xmlns="http://www.w3.org/2000/svg" version="1.1" viewBox="0 0 677.25 677.25">
  <!-- Generator: Adobe Illustrator 29.4.0, SVG Export Plug-In . SVG Version: 2.1.0 Build 152)  -->
  <defs>
    <style>
      .st0 {
        fill: #fefefe;
      }

      .st1 {
        fill: #fdfdfd;
      }
    </style>
  </defs>
  <rect class="st1" width="677.25" height="677.25"/>
  <g>
    <path d="M286.5,237.75c-6.22,7.18-11.14,17-15.14,25.74-.58,1.27-1.85,6.3-2.12,6.51-.74.58-2.23-.62-2.25-1.84,0-.57,2.38-6.49,2.87-7.67,3.96-9.53,10.38-19.41,16.63-27.62-7.29-2.93-16.22-6.42-15.8-15.76.3-6.62,5.95-15.33,11.77-18.27,2.34-1.18,5.03-.17,5.76-1.75l1.97-45.27,193.22.47c1.47.74,3.49-1.53,3.7-1.53,1.76,0,1.83,6.5,1.89,7.81,2.61,53.51-2.03,109.1.01,162.83.2,13.05-2.25,26.23-3.07,38.93-1.12,17.35.61,36.27.37,53.69.82,1.21,5.3.85,4.9,3.71l-10.09-1.53-237.82.07c-2.3.59-3.1-2.29-1.46-2.29h241.88c.89-18.06-1.18-37.22-.03-55.16.73-11.32,1.84-21.28,2.25-33,1.95-55.58.14-111.54.81-167.25l-.89-3.99-194.15-.86-1.39,45.24c.25,1.03,9.75,5.8,11.91,8.38,7.97,9.53-.82,28.96-14.26,25.9.55,1.12.76,2.05.79,3.32.31,12.23-2.06,34.37-.03,45.03.25,1.32,4.65,7.01,5.77,9.23,3.38,6.75,5.35,14.84,8.81,21.19,2.44,4.47,7.48,7.63,7.15,12.71l-5.23-5.63c-5.36-6.34-7.06-14.49-10.38-21.87-1.88-4.19-4.32-8.05-6.14-12.24l-13.64,27.98-2.11,8.77c-4.88-.58.07-10.22,1.36-13.26,2.1-4.95,12.14-22.34,12.14-26.11v-44.62Z"/>
    <path class="st0" d="M298.99,226.99c-5.46,6.47-12.47,4.1-18.99.38-8.39-4.79-8.59-10.99-3.81-19.06.83-1.41,6.94-6.92,8.26-7.5,2.61-1.15,8.26,2.29,10.71,3.91,4.58,3.01,8.44,6.33,7.88,12.41-.19,2.05-2.7,8.27-4.04,9.86Z"/>
  </g>
</svg>