<?xml version="1.0" encoding="UTF-8"?>
<svg id="_Слой_1" xmlns="http://www.w3.org/2000/svg" version="1.1" viewBox="0 0 98.74 155.05">
  <!-- Generator: Adobe Illustrator 29.4.0, SVG Export Plug-In . SVG Version: 2.1.0 Build 152)  -->
  <defs>
    <style>
      .st0 {
        fill: none;
        stroke: #000;
        stroke-miterlimit: 10;
      }

      .st1 {
        fill: #fff;
      }
    </style>
  </defs>
  <g>
    <path class="st1" d="M51.28,154.55c-25.9,0-46.97-25.39-46.97-56.6,0-7.79,1.28-14.08,2.35-17.99l.04-.16-4-10.07,7,.19L1.2,55.2l12.97,5.76L1.72,27.06l21.24,25.07L12.91,8.42l16.78,35.43,2.17-23.12,7.65,23.26L47.43,2.42l8.65,37.29,5.48-19.43,4.53,25.13,14.74-39.83-3.71,44.84,18.41-13.42-7.69,21.41,7.63-.61-.1,12.9-1.08,6.22.05.13c2.56,6.86,3.92,14.09,3.92,20.91,0,31.21-21.07,56.6-46.96,56.6h-.02Z"/>
    <path d="M47.46,4.85l7.67,33.08.88,3.79,1.06-3.75,4.36-15.47,3.82,21.19.65,3.61,1.27-3.44,12.83-34.68-3.32,40.1-.18,2.18,1.77-1.29,16.21-11.82-6.88,19.14-.52,1.46,1.54-.12,6.31-.5-.09,12.28-1.05,6.09-.05.27.09.25c2.54,6.81,3.89,13.98,3.89,20.73,0,30.93-20.84,56.1-46.46,56.1S4.79,128.88,4.79,97.95c0-7.73,1.27-13.98,2.33-17.86l.09-.32-.12-.31-3.66-9.21,5.34.15,1.79.05-.89-1.55-7.28-12.62,10.48,4.65,2.16.96-.81-2.22L3.15,29.53l18.08,21.34,2.66,3.14-.92-4.01L14.41,12.79l14.03,29.62,1.56,3.29.34-3.63,1.77-18.92,6.3,19.15,1.21,3.67.72-3.8,7.11-37.35M47.37,0l-8,42-7.8-23.7-2.22,23.69L11.38,4.04l10.62,46.19L.27,24.58l13.02,35.44L0,54.12l8.82,15.28-6.86-.19,4.22,10.62c-1.26,4.59-2.37,10.83-2.37,18.12,0,31.53,21.25,57.1,47.47,57.1s47.46-25.57,47.46-57.1c0-7.08-1.41-14.28-3.95-21.08l1.06-6.17.1-13.45-7.4.59,7.98-22.21-18.84,13.74,3.92-47.39-15.37,41.54-4.59-25.46-5.54,19.64L47.37,0h0Z"/>
  </g>
  <path class="st0" d="M19.68,74.19c6.24,7.18,12.81,14.08,19.69,20.66"/>
  <path class="st0" d="M38.81,76.29c-6.34,6.29-12.35,12.91-18.02,19.82"/>
  <path class="st0" d="M57.94,76.15c5.18,2.65,9.7,6.39,14.17,10.1,1.27,1.05,2.55,2.12,3.56,3.42,1.28,1.65,2.09,3.62,2.68,5.62"/>
  <path class="st0" d="M59.56,93.48c1.52-2.48,3.16-4.87,4.83-7.25,1.51-2.14,3.08-4.3,5.22-5.81,1.6-1.12,3.45-1.83,5.15-2.8,1.4-.8,2.7-1.79,3.85-2.92"/>
  <path class="st0" d="M26.48,124.38c1.64-2.81,3.34-5.68,5.87-7.73,4.5-3.65,10.7-4.1,16.47-4.6,5.1-.44,10.34-1.04,15.26.37,4.94,1.42,9.18,4.8,12.25,8.92"/>
  <path class="st0" d="M40.19,113.12c-1.32.91-1.8,2.13-2.24,3.29-.8,2.09-1.61,4.21-1.68,6.34-.03.87.1,1.8.89,2.5,1.23,1.11,3.76,1.43,6.04,1.3.79-.04,1.63-.14,2.23-.47.91-.48.99-1.3.89-2.01-.26-1.95-1.33-3.8-2.01-5.7s-.91-3.96.4-5.81"/>
</svg>