<?xml version="1.0" encoding="UTF-8"?>
<svg id="_Слой_1" data-name="Слой_1" xmlns="http://www.w3.org/2000/svg" version="1.1" viewBox="0 0 160 160">
  <!-- Generator: Adobe Illustrator 29.4.0, SVG Export Plug-In . SVG Version: 2.1.0 Build 152)  -->
  <defs>
    <style>
      .st0 {
        fill: none;
        stroke: #000;
        stroke-miterlimit: 10;
      }

      .st1 {
        fill: #fff;
      }
    </style>
  </defs>
  <g>
    <path class="st1" d="M80.78,157.39c-25.9,0-46.97-25.39-46.97-56.6,0-7.79,1.28-14.08,2.35-17.99l.04-.16-4-10.07,7,.19-8.5-14.72,12.97,5.76-12.45-33.9,21.24,25.07-10.05-43.71,16.78,35.43,2.17-23.12,7.65,23.26,7.92-41.57,8.65,37.29,5.48-19.43,4.53,25.13,14.74-39.83-3.71,44.84,18.41-13.42-7.69,21.41,7.63-.61-.1,12.9-1.08,6.22.05.13c2.56,6.86,3.92,14.09,3.92,20.91,0,31.21-21.07,56.6-46.96,56.6Z"/>
    <path d="M76.96,7.69l7.67,33.08.88,3.79,1.06-3.75,4.36-15.47,3.82,21.19.65,3.61,1.27-3.44,12.83-34.68-3.32,40.1-.18,2.18,1.77-1.29,16.21-11.82-6.88,19.14-.52,1.46,1.54-.12,6.31-.5-.09,12.28-1.05,6.09-.05.27.09.25c2.54,6.81,3.89,13.98,3.89,20.73,0,30.93-20.84,56.1-46.46,56.1s-46.47-25.17-46.47-56.1c0-7.73,1.27-13.98,2.33-17.86l.09-.32-.12-.31-3.66-9.21,5.34.15,1.79.05-.89-1.55-7.28-12.62,10.48,4.65,2.16.96-.81-2.22-11.07-30.14,18.08,21.34,2.66,3.14-.92-4.01-8.56-37.21,14.03,29.62,1.56,3.29.34-3.63,1.77-18.92,6.3,19.15,1.21,3.67.72-3.8,7.11-37.35M76.87,2.84l-8,42-7.8-23.7-2.22,23.69L40.88,6.88l10.62,46.19-21.73-25.65,13.02,35.44-13.29-5.9,8.82,15.28-6.86-.19,4.22,10.62c-1.26,4.59-2.37,10.83-2.37,18.12,0,31.53,21.25,57.1,47.47,57.1s47.46-25.57,47.46-57.1c0-7.08-1.41-14.28-3.95-21.08l1.06-6.17.1-13.45-7.4.59,7.98-22.21-18.84,13.74,3.92-47.39-15.37,41.54-4.59-25.46-5.54,19.64L76.87,2.84h0Z"/>
  </g>
  <path class="st0" d="M49.18,77.03c6.24,7.18,12.81,14.08,19.69,20.66"/>
  <path class="st0" d="M68.31,79.13c-6.34,6.29-12.35,12.91-18.02,19.82"/>
  <path class="st0" d="M87.44,78.99c5.18,2.65,9.7,6.39,14.17,10.1,1.27,1.05,2.55,2.12,3.56,3.42,1.28,1.65,2.09,3.62,2.68,5.62"/>
  <path class="st0" d="M89.06,96.32c1.52-2.48,3.16-4.87,4.83-7.25,1.51-2.14,3.08-4.3,5.22-5.81,1.6-1.12,3.45-1.83,5.15-2.8,1.4-.8,2.7-1.79,3.85-2.92"/>
  <path class="st0" d="M55.98,127.22c1.64-2.81,3.34-5.68,5.87-7.73,4.5-3.65,10.7-4.1,16.47-4.6,5.1-.44,10.34-1.04,15.26.37,4.94,1.42,9.18,4.8,12.25,8.92"/>
  <path class="st0" d="M69.94,115.69c-1.36.85-1.9,2.04-2.4,3.18-.9,2.05-1.81,4.13-1.98,6.25-.07.87.01,1.8.77,2.54,1.18,1.17,3.69,1.61,5.97,1.59.79,0,1.63-.06,2.25-.36.93-.44,1.05-1.25.99-1.96-.17-1.96-1.15-3.86-1.73-5.79s-.72-4,.68-5.78"/>
</svg>